<?xml version="1.0" encoding="utf-8"?>
<svg version="1.1" xmlns:xlink="http://www.w3.org/1999/xlink" width="22px" height="22px" viewBox="69 333  22 22" xmlns="http://www.w3.org/2000/svg">
  <path d="M 80 333  C 86.16 333  91 337.84  91 344  C 91 350.16  86.16 355  80 355  C 73.84 355  69 350.16  69 344  C 69 337.84  73.84 333  80 333  Z " fill-rule="nonzero" fill="#f0f0f0" stroke="none" />
  <path d="M 80 333.5  C 85.88 333.5  90.5 338.12  90.5 344  C 90.5 349.88  85.88 354.5  80 354.5  C 74.12 354.5  69.5 349.88  69.5 344  C 69.5 338.12  74.12 333.5  80 333.5  Z " stroke-width="1" stroke="#797979" fill="none" />
  <path d="M 80 349.5  C 76.92 349.5  74.5 347.08  74.5 344  C 74.5 340.92  76.92 338.5  80 338.5  C 83.08 338.5  85.5 340.92  85.5 344  C 85.5 347.08  83.08 349.5  80 349.5  " fill-rule="nonzero" fill="#797979" stroke="none" />
</svg>