<?xml version="1.0" encoding="utf-8"?>
<svg version="1.1" xmlns:xlink="http://www.w3.org/1999/xlink" width="22px" height="22px" viewBox="651 324  22 22" xmlns="http://www.w3.org/2000/svg">
  <path d="M 662 324  C 668.16 324  673 328.84  673 335  C 673 341.16  668.16 346  662 346  C 655.84 346  651 341.16  651 335  C 651 328.84  655.84 324  662 324  Z " fill-rule="nonzero" fill="#ffffff" stroke="none" />
  <path d="M 662 324.5  C 667.88 324.5  672.5 329.12  672.5 335  C 672.5 340.88  667.88 345.5  662 345.5  C 656.12 345.5  651.5 340.88  651.5 335  C 651.5 329.12  656.12 324.5  662 324.5  Z " stroke-width="1" stroke="#797979" fill="none" />
  <path d="M 662 340.5  C 658.92 340.5  656.5 338.08  656.5 335  C 656.5 331.92  658.92 329.5  662 329.5  C 665.08 329.5  667.5 331.92  667.5 335  C 667.5 338.08  665.08 340.5  662 340.5  " fill-rule="nonzero" fill="#797979" stroke="none" />
</svg>