<?xml version="1.0" encoding="utf-8"?>
<svg version="1.1" xmlns:xlink="http://www.w3.org/1999/xlink" width="22px" height="22px" viewBox="364 333  22 22" xmlns="http://www.w3.org/2000/svg">
  <path d="M 375 333  C 381.16 333  386 337.84  386 344  C 386 350.16  381.16 355  375 355  C 368.84 355  364 350.16  364 344  C 364 337.84  368.84 333  375 333  Z " fill-rule="nonzero" fill="#ffffff" stroke="none" />
  <path d="M 375 333.5  C 380.88 333.5  385.5 338.12  385.5 344  C 385.5 349.88  380.88 354.5  375 354.5  C 369.12 354.5  364.5 349.88  364.5 344  C 364.5 338.12  369.12 333.5  375 333.5  Z " stroke-width="1" stroke="#797979" fill="none" />
  <path d="M 375 349.5  C 371.92 349.5  369.5 347.08  369.5 344  C 369.5 340.92  371.92 338.5  375 338.5  C 378.08 338.5  380.5 340.92  380.5 344  C 380.5 347.08  378.08 349.5  375 349.5  " fill-rule="nonzero" fill="#797979" stroke="none" />
</svg>