<?xml version="1.0" encoding="utf-8"?>
<svg version="1.1" xmlns:xlink="http://www.w3.org/1999/xlink" width="22px" height="22px" viewBox="512 332  22 22" xmlns="http://www.w3.org/2000/svg">
  <path d="M 523 332  C 529.16 332  534 336.84  534 343  C 534 349.16  529.16 354  523 354  C 516.84 354  512 349.16  512 343  C 512 336.84  516.84 332  523 332  Z " fill-rule="nonzero" fill="#f0f0f0" stroke="none" />
  <path d="M 523 332.5  C 528.88 332.5  533.5 337.12  533.5 343  C 533.5 348.88  528.88 353.5  523 353.5  C 517.12 353.5  512.5 348.88  512.5 343  C 512.5 337.12  517.12 332.5  523 332.5  Z " stroke-width="1" stroke="#797979" fill="none" />
  <path d="M 523 348.5  C 519.92 348.5  517.5 346.08  517.5 343  C 517.5 339.92  519.92 337.5  523 337.5  C 526.08 337.5  528.5 339.92  528.5 343  C 528.5 346.08  526.08 348.5  523 348.5  " fill-rule="nonzero" fill="#797979" stroke="none" />
</svg>