<?xml version="1.0" encoding="utf-8"?>
<svg version="1.1" xmlns:xlink="http://www.w3.org/1999/xlink" width="22px" height="22px" viewBox="801 325  22 22" xmlns="http://www.w3.org/2000/svg">
  <path d="M 812 325  C 818.16 325  823 329.84  823 336  C 823 342.16  818.16 347  812 347  C 805.84 347  801 342.16  801 336  C 801 329.84  805.84 325  812 325  Z " fill-rule="nonzero" fill="#ffffff" stroke="none" />
  <path d="M 812 325.5  C 817.88 325.5  822.5 330.12  822.5 336  C 822.5 341.88  817.88 346.5  812 346.5  C 806.12 346.5  801.5 341.88  801.5 336  C 801.5 330.12  806.12 325.5  812 325.5  Z " stroke-width="1" stroke="#797979" fill="none" />
  <path d="M 812 341.5  C 808.92 341.5  806.5 339.08  806.5 336  C 806.5 332.92  808.92 330.5  812 330.5  C 815.08 330.5  817.5 332.92  817.5 336  C 817.5 339.08  815.08 341.5  812 341.5  " fill-rule="nonzero" fill="#797979" stroke="none" />
</svg>